2014050_C4_04_grf
version=1
nRows=37
nColumns=19
inDegrees=no
endheader
time	ground_force_1_vx	ground_force_1_vy	ground_force_1_vz	ground_force_1_px	ground_force_1_py	ground_force_1_pz	ground_force_1_mx	ground_force_1_my	ground_force_1_mz	ground_force_2_vx	ground_force_2_vy	ground_force_2_vz	ground_force_2_px	ground_force_2_py	ground_force_2_pz	ground_force_2_mx	ground_force_2_my	ground_force_2_mz
      0.82500000	      0.00000000	      0.00000000	      0.00000000	      0.00000000	      0.00000000	      0.00000000	      0.00000000	      0.00000000	      0.00000000	    -17.59479288	    508.60022753	     33.64585191	      0.84220876	     -0.00200000	     -0.27400294	      0.00000000	      0.55537428	      0.00000000
      0.82600000	      0.00000000	      0.00000000	      0.00000000	      0.00000000	      0.00000000	      0.00000000	      0.00000000	      0.00000000	      0.00000000	    -17.34697819	    507.62609392	     33.64321291	      0.84273899	     -0.00200000	     -0.27413724	      0.00000000	      0.55761464	      0.00000000
      0.82700000	      0.00000000	      0.00000000	      0.00000000	      0.00000000	      0.00000000	      0.00000000	      0.00000000	      0.00000000	      0.00000000	    -17.10248832	    506.69428334	     33.63607526	      0.84326816	     -0.00200000	     -0.27426886	      0.00000000	      0.55959587	      0.00000000
      0.82800000	      0.00000000	      0.00000000	      0.00000000	      0.00000000	      0.00000000	      0.00000000	      0.00000000	      0.00000000	      0.00000000	    -16.86064713	    505.79595566	     33.62541497	      0.84379639	     -0.00200000	     -0.27439833	      0.00000000	      0.56135767	      0.00000000
      0.82900000	      0.00000000	      0.00000000	      0.00000000	      0.00000000	      0.00000000	      0.00000000	      0.00000000	      0.00000000	      0.00000000	    -16.62209909	    504.93906438	     33.61044675	      0.84432336	     -0.00200000	     -0.27452509	      0.00000000	      0.56283191	      0.00000000
      0.83000000	      0.00000000	      0.00000000	      0.00000000	      0.00000000	      0.00000000	      0.00000000	      0.00000000	      0.00000000	      0.00000000	    -16.38616063	    504.11492586	     33.59212279	      0.84484924	     -0.00200000	     -0.27464967	      0.00000000	      0.56406716	      0.00000000
      0.83100000	      0.00000000	      0.00000000	      0.00000000	      0.00000000	      0.00000000	      0.00000000	      0.00000000	      0.00000000	      0.00000000	    -16.15345106	    503.33115458	     33.56971592	      0.84537369	     -0.00200000	     -0.27477153	      0.00000000	      0.56499273	      0.00000000
      0.83200000	      0.00000000	      0.00000000	      0.00000000	      0.00000000	      0.00000000	      0.00000000	      0.00000000	      0.00000000	      0.00000000	    -15.92329144	    502.57930160	     33.54414105	      0.84589690	     -0.00200000	     -0.27489120	      0.00000000	      0.56566126	      0.00000000
      0.83300000	      0.00000000	      0.00000000	      0.00000000	      0.00000000	      0.00000000	      0.00000000	      0.00000000	      0.00000000	      0.00000000	    -15.69626434	    501.86669454	     33.51472914	      0.84641851	     -0.00200000	     -0.27500813	      0.00000000	      0.56599803	      0.00000000
      0.83400000	      0.00000000	      0.00000000	      0.00000000	      0.00000000	      0.00000000	      0.00000000	      0.00000000	      0.00000000	      0.00000000	    -15.47169406	    501.18496269	     33.48236382	      0.84693878	     -0.00200000	     -0.27512286	      0.00000000	      0.56606328	      0.00000000
      0.83500000	      0.00000000	      0.00000000	      0.00000000	      0.00000000	      0.00000000	      0.00000000	      0.00000000	      0.00000000	      0.00000000	    -15.25012078	    500.54109469	     33.44643116	      0.84745731	     -0.00200000	     -0.27523485	      0.00000000	      0.56578043	      0.00000000
      0.83600000	      0.00000000	      0.00000000	      0.00000000	      0.00000000	      0.00000000	      0.00000000	      0.00000000	      0.00000000	      0.00000000	    -15.03088232	    499.92705882	     33.40775371	      0.84797437	     -0.00200000	     -0.27534463	      0.00000000	      0.56521249	      0.00000000
      0.83700000	      0.00000000	      0.00000000	      0.00000000	      0.00000000	      0.00000000	      0.00000000	      0.00000000	      0.00000000	      0.00000000	    -14.81448021	    499.34950471	     33.36576670	      0.84848953	     -0.00200000	     -0.27545167	      0.00000000	      0.56428021	      0.00000000
      0.83800000	      0.00000000	      0.00000000	      0.00000000	      0.00000000	      0.00000000	      0.00000000	      0.00000000	      0.00000000	      0.00000000	    -14.60028067	    498.80063534	     33.32124054	      0.84900309	     -0.00200000	     -0.27555651	      0.00000000	      0.56305089	      0.00000000
      0.83900000	      0.00000000	      0.00000000	      0.00000000	      0.00000000	      0.00000000	      0.00000000	      0.00000000	      0.00000000	      0.00000000	    -14.38874984	    498.28686565	     33.27366710	      0.84951459	     -0.00200000	     -0.27565860	      0.00000000	      0.56144436	      0.00000000
      0.84000000	      0.00000000	      0.00000000	      0.00000000	      0.00000000	      0.00000000	      0.00000000	      0.00000000	      0.00000000	      0.00000000	    -14.17928189	    497.80063331	     33.22376311	      0.85002436	     -0.00200000	     -0.27575851	      0.00000000	      0.55953150	      0.00000000
      0.84100000	      0.00000000	      0.00000000	      0.00000000	      0.00000000	      0.00000000	      0.00000000	      0.00000000	      0.00000000	      0.00000000	    -13.97229964	    497.34822288	     33.17108154	      0.85053189	     -0.00200000	     -0.27585569	      0.00000000	      0.55723203	      0.00000000
      0.84200000	      0.00000000	      0.00000000	      0.00000000	      0.00000000	      0.00000000	      0.00000000	      0.00000000	      0.00000000	      0.00000000	    -13.76722567	    496.92235887	     33.11628401	      0.85103756	     -0.00200000	     -0.27595069	      0.00000000	      0.55462204	      0.00000000
      0.84300000	      0.00000000	      0.00000000	      0.00000000	      0.00000000	      0.00000000	      0.00000000	      0.00000000	      0.00000000	      0.00000000	    -13.56443157	    496.52901292	     33.05897713	      0.85154084	     -0.00200000	     -0.27604298	      0.00000000	      0.55162513	      0.00000000
      0.84400000	      0.00000000	      0.00000000	      0.00000000	      0.00000000	      0.00000000	      0.00000000	      0.00000000	      0.00000000	      0.00000000	    -13.36337253	    496.16117030	     32.99977481	      0.85204215	     -0.00200000	     -0.27613311	      0.00000000	      0.54832082	      0.00000000
      0.84500000	      0.00000000	      0.00000000	      0.00000000	      0.00000000	      0.00000000	      0.00000000	      0.00000000	      0.00000000	      0.00000000	    -13.16436287	    495.82467228	     32.93835670	      0.85254095	     -0.00200000	     -0.27622057	      0.00000000	      0.54463624	      0.00000000
      0.84600000	      0.00000000	      0.00000000	      0.00000000	      0.00000000	      0.00000000	      0.00000000	      0.00000000	      0.00000000	      0.00000000	    -12.96688989	    495.51268667	     32.87529051	      0.85303767	     -0.00200000	     -0.27630591	      0.00000000	      0.54064986	      0.00000000
      0.84700000	      0.00000000	      0.00000000	      0.00000000	      0.00000000	      0.00000000	      0.00000000	      0.00000000	      0.00000000	      0.00000000	    -12.77119666	    495.23079395	     32.81033784	      0.85353174	     -0.00200000	     -0.27638864	      0.00000000	      0.53629181	      0.00000000
      0.84800000	      0.00000000	      0.00000000	      0.00000000	      0.00000000	      0.00000000	      0.00000000	      0.00000000	      0.00000000	      0.00000000	    -12.57680543	    494.97247487	     32.74400532	      0.85402363	     -0.00200000	     -0.27646930	      0.00000000	      0.53164282	      0.00000000
      0.84900000	      0.00000000	      0.00000000	      0.00000000	      0.00000000	      0.00000000	      0.00000000	      0.00000000	      0.00000000	      0.00000000	    -12.38388568	    494.74304914	     32.67612606	      0.85451272	     -0.00200000	     -0.27654741	      0.00000000	      0.52664205	      0.00000000
      0.85000000	      0.00000000	      0.00000000	      0.00000000	      0.00000000	      0.00000000	      0.00000000	      0.00000000	      0.00000000	      0.00000000	    -12.19202019	    494.53620613	     32.60713816	      0.85499952	     -0.00200000	     -0.27662350	      0.00000000	      0.52136874	      0.00000000
      0.85100000	      0.00000000	      0.00000000	      0.00000000	      0.00000000	      0.00000000	      0.00000000	      0.00000000	      0.00000000	      0.00000000	    -12.00131839	    494.35708299	     32.53694177	      0.85548340	     -0.00200000	     -0.27669712	      0.00000000	      0.51576512	      0.00000000
      0.85200000	      0.00000000	      0.00000000	      0.00000000	      0.00000000	      0.00000000	      0.00000000	      0.00000000	      0.00000000	      0.00000000	    -11.81142125	    494.19960380	     32.46591985	      0.85596491	     -0.00200000	     -0.27676881	      0.00000000	      0.50990516	      0.00000000
      0.85300000	      0.00000000	      0.00000000	      0.00000000	      0.00000000	      0.00000000	      0.00000000	      0.00000000	      0.00000000	      0.00000000	    -11.62237348	    494.06867102	     32.39404261	      0.85644340	     -0.00200000	     -0.27683813	      0.00000000	      0.50373458	      0.00000000
      0.85400000	      0.00000000	      0.00000000	      0.00000000	      0.00000000	      0.00000000	      0.00000000	      0.00000000	      0.00000000	      0.00000000	    -11.43387705	    493.95839125	     32.32162893	      0.85691944	     -0.00200000	     -0.27690560	      0.00000000	      0.49732529	      0.00000000
      0.85500000	      0.00000000	      0.00000000	      0.00000000	      0.00000000	      0.00000000	      0.00000000	      0.00000000	      0.00000000	      0.00000000	    -11.24590263	    493.87340620	     32.24873096	      0.85739238	     -0.00200000	     -0.27697082	      0.00000000	      0.49063286	      0.00000000
      0.85600000	      0.00000000	      0.00000000	      0.00000000	      0.00000000	      0.00000000	      0.00000000	      0.00000000	      0.00000000	      0.00000000	    -11.05820201	    493.80813539	     32.17560351	      0.85786278	     -0.00200000	     -0.27703427	      0.00000000	      0.48372792	      0.00000000
      0.85700000	      0.00000000	      0.00000000	      0.00000000	      0.00000000	      0.00000000	      0.00000000	      0.00000000	      0.00000000	      0.00000000	    -10.87065693	    493.76680329	     32.10239112	      0.85833000	     -0.00200000	     -0.27709557	      0.00000000	      0.47657645	      0.00000000
      0.85800000	      0.00000000	      0.00000000	      0.00000000	      0.00000000	      0.00000000	      0.00000000	      0.00000000	      0.00000000	      0.00000000	    -10.68308391	    493.74414235	     32.02927411	      0.85879463	     -0.00200000	     -0.27715517	      0.00000000	      0.46924198	      0.00000000
      0.85900000	      0.00000000	      0.00000000	      0.00000000	      0.00000000	      0.00000000	      0.00000000	      0.00000000	      0.00000000	      0.00000000	    -10.49528969	    493.74419451	     31.95647746	      0.85925598	     -0.00200000	     -0.27721269	      0.00000000	      0.46169513	      0.00000000
      0.86000000	      0.00000000	      0.00000000	      0.00000000	      0.00000000	      0.00000000	      0.00000000	      0.00000000	      0.00000000	      0.00000000	    -10.30717418	    493.76182258	     31.88409805	      0.85971469	     -0.00200000	     -0.27726860	      0.00000000	      0.45399348	      0.00000000
      0.86100000	      0.00000000	      0.00000000	      0.00000000	      0.00000000	      0.00000000	      0.00000000	      0.00000000	      0.00000000	      0.00000000	    -10.11848729	    493.80085990	     31.81243837	      0.86017009	     -0.00200000	     -0.27732250	      0.00000000	      0.44611817	      0.00000000
